<!-- public/favicon.svg -->

<svg width="64" height="64" viewBox="0 0 64 64" xmlns="http://www.w3.org/2000/svg">
  <rect width="64" height="64" rx="18" fill="#3b1f2b"/>
  <path d="M32 12C25 20 17 26 17 37C17 46 24 52 32 52C40 52 47 46 47 37C47 26 39 20 32 12Z" fill="#c8896c"/>
  <path d="M32 18C28 25 23 30 23 38C23 43 27 47 32 47C37 47 41 43 41 38C41 30 36 25 32 18Z" fill="#fff8f1"/>
  <path d="M20 38C15 35 12 31 12 27C18 27 24 30 28 36" fill="none" stroke="#f6eadf" stroke-width="3" stroke-linecap="round"/>
  <path d="M44 38C49 35 52 31 52 27C46 27 40 30 36 36" fill="none" stroke="#f6eadf" stroke-width="3" stroke-linecap="round"/>
</svg>